<?xml version="1.0" encoding="utf-8"?>
<!-- Generator: Adobe Illustrator 16.0.0, SVG Export Plug-In . SVG Version: 6.00 Build 0)  -->
<!DOCTYPE svg PUBLIC "-//W3C//DTD SVG 1.1//EN" "http://www.w3.org/Graphics/SVG/1.1/DTD/svg11.dtd">
<svg version="1.1" xmlns="http://www.w3.org/2000/svg" xmlns:xlink="http://www.w3.org/1999/xlink" x="0px" y="0px"
	 width="775.25px" height="676.6px" viewBox="0 0 775.25 676.6" enable-background="new 0 0 775.25 676.6" xml:space="preserve">
<g id="Layer_1_copy">
	<g>
		<g>
			<path fill="#E03A3E" d="M189.104,198.516c0,0-6.329-7.749-17.265-9.133c0,0-2.024-35.476-37.565-35.501v-0.003h-0.033h-0.058
				h-0.028v0.003c-35.542,0.018-37.568,35.501-37.568,35.501c-10.936,1.384-17.257,9.133-17.257,9.133
				c-11.39,11.644-5.702,29.107-5.702,29.107c7.174,23.983,24.517,34.6,24.517,34.6c13.942,9.325,27.481,11.166,36.055,11.301l0,0
				c0.005,0,0.01,0,0.013,0s0.007,0,0.012,0l0,0c8.574-0.136,22.123-1.977,36.065-11.301c0,0,17.333-10.616,24.507-34.6
				C194.798,227.623,200.493,210.159,189.104,198.516z"/>
		</g>
		<g>
			<path fill="#FFFFFF" d="M184.6,201.209c0,0-5.483-6.147-17.665-7.394c0,0-0.665-35.206-32.712-35.222v-0.002
				c-0.005,0-0.01,0-0.013,0c-0.002,0-0.007,0-0.012,0v0.002c-32.055,0.016-32.705,35.222-32.705,35.222
				c-12.189,1.247-17.672,7.394-17.672,7.394c-10.354,10.599-4.896,25.688-4.896,25.688c6.621,22.171,22.554,31.581,22.554,31.581
				c12.852,8.587,25.031,10.32,32.72,10.332l0,0c0.005,0,0.01,0,0.012,0c0.003,0,0.008,0,0.013,0l0,0
				c7.69-0.012,19.873-1.745,32.719-10.332c0,0,15.936-9.41,22.566-31.581C189.509,226.898,194.961,211.808,184.6,201.209z"/>
		</g>
		<g>
			<path fill="#E03A3E" d="M184.829,214.725c0,0-2.365-13.081-15.483-13.643h-10.99c1.416-3.241,1.909-5.897,1.871-10.671
				c-0.101-14.115-11.441-25.136-25.885-25.136h-0.251c-14.452,0-25.87,10.887-25.978,25.002c-0.036,4.773,0.606,7.766,2.123,10.804
				H98.583c-13.117,0.862-14.977,13.643-14.977,13.643c-1.117,9.305,2.147,15.36,2.147,15.36s8.263,23.003,34.563,30.162
				c0,0,5.69,1.802,13.897,1.879c8.201-0.078,13.909-1.879,13.909-1.879c26.277-7.159,34.55-30.162,34.55-30.162
				S185.938,224.03,184.829,214.725z M181.722,229.764c0,0-8.111,22.551-33.872,29.57c0,0-5.597,1.768-13.637,1.843
				c-8.046-0.076-13.625-1.843-13.625-1.843c-25.784-7.019-33.885-29.57-33.885-29.57s-3.2-5.937-2.104-15.06
				c0,0,2.316-12.331,15.175-12.683h11.908c-1.772-3.61-2.548-6.25-2.513-10.931c0.106-13.838,10.754-24.865,24.923-24.865h0.247
				c14.161,0,24.817,11.026,24.915,24.865c0.038,4.68-0.74,7.321-2.5,10.931h11.902c12.862,0.353,15.18,12.683,15.18,12.683
				C184.924,223.828,181.722,229.764,181.722,229.764z"/>
		</g>
		<g>
			<path fill="#E03A3E" d="M179.429,209.348c-4.245-5.851-11.419-5.768-11.419-5.768h-17.786l-0.189,0.365
				c-3.444,5.105-9.229,8.494-15.819,8.63c-6.585-0.136-12.376-3.525-15.83-8.63l-0.171-0.365h-17.804c0,0-7.169-0.083-11.394,5.768
				c0,0-5.729,5.938-0.694,19.47c0,0,7.449,21.353,32.641,28.521c0,0,5.362,1.694,13.106,1.79v0.008c0.05,0,0.098-0.008,0.146-0.008
				c0.045,0,0.096,0.008,0.146,0.008v-0.008c7.736-0.096,13.105-1.79,13.105-1.79c25.188-7.167,32.634-28.521,32.634-28.521
				C185.146,215.286,179.429,209.348,179.429,209.348z"/>
		</g>
		<g>
			<path fill="#FFFFFF" d="M112.469,232.747c4.985-1.22,8.603-4.906,8.603-9.261c0-5.362-5.476-9.709-12.228-9.709
				c-6.757,0-12.23,4.348-12.23,9.709c0,4.337,3.61,8.023,8.567,9.254v5.821h-7.998v3.091l23.377,0.005v-3.096h-8.091V232.747z
				 M108.779,230.252c-3.001,0-5.438-3.152-5.438-7.024c0-3.879,2.437-7.029,5.438-7.029c3.003,0,5.436,3.15,5.436,7.029
				C114.214,227.1,111.782,230.252,108.779,230.252z"/>
		</g>
		<g>
			<g>
				<path fill="#FFFFFF" d="M123.068,226.328v0.015v0.018c0.015,1.112,0.921,2.009,2.034,2.009c0.005,0,0.01-0.003,0.03-0.003
					l0.005,0.013h8.351v-3.049h-3.618v-8.002h3.62v-3.057h-10.438l0.005,12.028C123.058,226.313,123.068,226.328,123.068,226.328z"
					/>
			</g>
			<g>
				<path fill="#FFFFFF" d="M137.399,228.367l0.008,0.013h9.056v-3.019h-4.343v-8.043h4.343v-3.036l-11.115-0.01v12.089l0.041,0.03
					C135.413,227.483,136.299,228.359,137.399,228.367z"/>
			</g>
			<g>
				<path fill="#FFFFFF" d="M146.747,230.58h-23.979v3.182h8.013v6.333c-0.015,0.091-0.018,0.204-0.018,0.295
					c0,1.563,1.626,2.832,3.635,2.832c2.001,0,3.63-1.258,3.64-2.809h0.01l-0.003-6.667h8.701V230.58z"/>
			</g>
		</g>
		<g>
			<g>
				<path fill="#FFFFFF" d="M164.966,213.768v26.101c0,1.551,1.503,2.805,3.497,2.805s3.354-1.253,3.354-2.805v-26.101H164.966z"/>
			</g>
			<g>
				<path fill="#FFFFFF" d="M148.962,217.403h6.608v16.57c0,0,0,3.172-4.826,4.091h0.015c-1.201,0.181-1.843,0.828-1.843,1.84
					c0,1.017,0.619,1.813,1.646,1.813l0.015,0.015c0,0,11.472,0.471,11.472-7.054v-20.452h-13.088V217.403z"/>
			</g>
		</g>
		<g>
			<g>
				<path fill="#E03A3E" d="M153.28,191.526c0,0,1.201-7.145-6.208-15.903c0,0-7.638-11.49-17.456-4.275c0,0-4.642-3.539-8.383,0.27
					c0,0-3.139,1.699-1.425,6.933c0,0-9.161,10.566-2.588,19.961c0,0,2.543,2.502,2.764,4.808c0,0,2.352,4.597,9.929,7.072
					c0,0,12.205,4.313,20.504-9.187C150.417,201.206,159.413,198.203,153.28,191.526z M150.063,196.906
					c-0.431-0.625-1.685-0.508-1.685-0.508c-1.676,0.007-1.352,1.369-1.352,1.369c-0.204,1.888-2.81,4.013-2.81,4.013
					c-0.831,0.214-0.302,1.259-0.302,1.259c0.219,1.047-0.62,1.584-0.62,1.584c-3.328,3.582-10.256,3.219-10.256,3.219
					c-3.882,0.348-9.058-4.028-9.058-4.028c-1.267-0.508-0.952-1.563-0.952-1.563c0.093-1.15-0.75-1.57-0.75-1.57
					c-4.325-3.326-4.156-8.26-4.156-8.26c-0.571-5.871,4.32-11.369,4.32-11.369c4.73,0.599,7.129-1.204,7.129-1.204
					c6.85,4.035,7.658-0.795,7.658-0.795c-3.355,0.342-1.9-1.558-1.9-1.558c0.825-1.155,2.834-0.755,2.834-0.755
					c10.395,1.709,7.087,8.658,7.087,8.658c3.164,1.762,1.707,3.245,1.707,3.245c-4.207-1.148-1.035,3.157-1.035,3.157
					c1.374,0.093,2.024,2.822,2.024,2.822c-0.09,2.2,2.107,0.604,2.107,0.604c1.759-2.215,2.092,0.514,2.092,0.514
					C151.966,198.255,150.063,196.906,150.063,196.906z"/>
			</g>
			<g>
				<path fill="#E03A3E" d="M122.263,184.203c0,0,3.234-1.908,4.514-0.241c0,0,0.946,0.617,0.72-0.952c0,0-1.691-3.454-5.553,0.36
					C121.943,183.37,119.964,185.482,122.263,184.203z"/>
			</g>
			<g>
				<path fill="#E03A3E" d="M140.284,180.034l-2.562,1.118c-1.712,0.851-0.7,2.024-0.7,2.024c1.433,1.435,2.601,0.267,2.601,0.267
					c1.898-2.135,3.975-1.128,3.975-1.128C142.994,178.302,140.284,180.034,140.284,180.034z"/>
			</g>
			<g>
				<path fill="#E03A3E" d="M135.803,192.163c1.471-0.015,2.651-1.203,2.633-2.673c-0.01-1.46-1.203-2.644-2.668-2.633
					c-1.464,0.01-2.646,1.203-2.633,2.663C133.138,190.998,134.344,192.173,135.803,192.163z"/>
			</g>
			<g>
				<path fill="#E03A3E" d="M127.959,188.78c0,0-2.301,0.541,0.327,2.097c0,0,2.432,1.347,2.417-0.124c0,0-1.674,0.217-0.327-1.888
					c0,0,0.088-2.625-1.803-2.822C128.574,186.043,130.165,188.764,127.959,188.78z"/>
			</g>
			<g>
				<path fill="#E03A3E" d="M125.759,188.377c0,0,2.303-0.549-0.219-0.629c0,0-2.415,0.332-3.372-1.551c0,0-2.006-1.873-0.831,0.428
					C121.338,186.625,122.199,189.555,125.759,188.377z"/>
			</g>
			<g>
				<path fill="#E03A3E" d="M140.924,196.344l-1.667,1.061c0,0-1.471,0.644-0.955-1.038c0,0,0.285-4.31-2.432-2.502
					c0,0-1.875,2.009-3.24,2.435c0,0-2.502,1.387-5.14-0.484c0,0-2.754-3.023-4.33-2.801c0,0-2.318-0.717-0.31,0.629
					c0,0,1.689,0.096,2.419,1.144c0,0,1.491,1.661,2.649,2.175c0,0,1.696,1.883,5.467,1.853c0,0,5.146,0.594,8.171-2.054
					C141.558,196.76,142.699,195.179,140.924,196.344z M134.887,197.525l-1.259-0.214c0,0,1.881-0.626,2.518-1.468
					C136.146,195.844,135.736,197.312,134.887,197.525z"/>
			</g>
			<g>
				<path fill="#E03A3E" d="M143.175,194.787c0,0-1.224-0.544-0.287,0.652c0,0,0.529,0.39,0.529,0.964c0,0,0.393-0.315,0.181-1.07
					C143.598,195.333,143.386,194.882,143.175,194.787z"/>
			</g>
			<g>
				<path fill="#E03A3E" d="M130.271,203.089c-0.473-0.317-1.148,0.377-1.148,0.377c-1.42,0.479-2.945-0.448-2.945-0.448
					c-1.048-0.074-1.451-0.741-1.582-1.046c-0.012-0.577-0.322-0.837-0.322-0.837c-0.999-1.143-0.939,0.222-0.939,0.222
					c0.421,0.411,0.421,0.833,0.421,0.833c-0.096,0.576,0.539,1.103,0.539,1.103c3.303,2.53,3.792,1.599,3.792,1.599
					c0.196-0.05,0.987-0.375,0.987-0.375c0.018-0.106,1.047-0.904,1.047-0.904C131.428,202.928,130.271,203.089,130.271,203.089z"/>
			</g>
		</g>
		<g>
			<g>
				<path fill="#E03A3E" d="M184.148,263.995c-2.859,0-5.176,2.318-5.176,5.177c0,2.858,2.317,5.176,5.176,5.176
					c2.858,0,5.176-2.317,5.176-5.176C189.325,266.313,187.007,263.995,184.148,263.995z M184.149,273.435
					c-2.354,0-4.263-1.909-4.263-4.263c0-2.354,1.908-4.263,4.263-4.263c2.354,0,4.263,1.909,4.263,4.263
					C188.412,271.526,186.503,273.435,184.149,273.435z"/>
			</g>
			<g>
				<path fill="#E03A3E" d="M186.548,271.544l-0.05-1.139c-0.033-0.875-0.37-1.032-0.708-1.181c0.379-0.237,0.823-0.579,0.823-1.506
					c0-1.331-0.971-1.689-1.941-1.689h-2.731v6.285h0.798v-2.696h1.933c0.954,0,1.052,0.604,1.052,1.121
					c0,0.236,0.025,1.19,0.141,1.575h0.979v-0.14C186.597,272.025,186.556,271.895,186.548,271.544z M184.59,268.892h-1.851v-2.137
					h1.991c0.395,0,1.061,0.079,1.061,1.051C185.791,268.733,185.174,268.892,184.59,268.892z"/>
			</g>
		</g>
	</g>
</g>
<g id="Layer_1">
	<g>
		<g>
			<path fill="#E03A3E" d="M189.104,198.516c0,0-6.329-7.749-17.265-9.133c0,0-2.024-35.476-37.565-35.501v-0.003h-0.033h-0.058
				h-0.028v0.003c-35.542,0.018-37.568,35.501-37.568,35.501c-10.936,1.384-17.257,9.133-17.257,9.133
				c-11.39,11.644-5.702,29.107-5.702,29.107c7.174,23.983,24.517,34.6,24.517,34.6c13.942,9.325,27.481,11.166,36.055,11.301l0,0
				c0.005,0,0.01,0,0.013,0s0.007,0,0.012,0l0,0c8.574-0.136,22.123-1.977,36.065-11.301c0,0,17.333-10.616,24.507-34.6
				C194.798,227.623,200.493,210.159,189.104,198.516z"/>
		</g>
		<g>
			<path fill="#FFFFFF" d="M184.6,201.209c0,0-5.483-6.147-17.665-7.394c0,0-0.665-35.206-32.712-35.222v-0.002
				c-0.005,0-0.01,0-0.013,0c-0.002,0-0.007,0-0.012,0v0.002c-32.055,0.016-32.705,35.222-32.705,35.222
				c-12.189,1.247-17.672,7.394-17.672,7.394c-10.354,10.599-4.896,25.688-4.896,25.688c6.621,22.171,22.554,31.581,22.554,31.581
				c12.852,8.587,25.031,10.32,32.72,10.332l0,0c0.005,0,0.01,0,0.012,0c0.003,0,0.008,0,0.013,0l0,0
				c7.69-0.012,19.873-1.745,32.719-10.332c0,0,15.936-9.41,22.566-31.581C189.509,226.898,194.961,211.808,184.6,201.209z"/>
		</g>
		<g>
			<path fill="#E03A3E" d="M184.829,214.725c0,0-2.365-13.081-15.483-13.643h-10.99c1.416-3.241,1.909-5.897,1.871-10.671
				c-0.101-14.115-11.441-25.136-25.885-25.136h-0.251c-14.452,0-25.87,10.887-25.978,25.002c-0.036,4.773,0.606,7.766,2.123,10.804
				H98.583c-13.117,0.862-14.977,13.643-14.977,13.643c-1.117,9.305,2.147,15.36,2.147,15.36s8.263,23.003,34.563,30.162
				c0,0,5.69,1.802,13.897,1.879c8.201-0.078,13.909-1.879,13.909-1.879c26.277-7.159,34.55-30.162,34.55-30.162
				S185.938,224.03,184.829,214.725z M181.722,229.764c0,0-8.111,22.551-33.872,29.57c0,0-5.597,1.768-13.637,1.843
				c-8.046-0.076-13.625-1.843-13.625-1.843c-25.784-7.019-33.885-29.57-33.885-29.57s-3.2-5.937-2.104-15.06
				c0,0,2.316-12.331,15.175-12.683h11.908c-1.772-3.61-2.548-6.25-2.513-10.931c0.106-13.838,10.754-24.865,24.923-24.865h0.247
				c14.161,0,24.817,11.026,24.915,24.865c0.038,4.68-0.74,7.321-2.5,10.931h11.902c12.862,0.353,15.18,12.683,15.18,12.683
				C184.924,223.828,181.722,229.764,181.722,229.764z"/>
		</g>
		<g>
			<path fill="#E03A3E" d="M179.429,209.348c-4.245-5.851-11.419-5.768-11.419-5.768h-17.786l-0.189,0.365
				c-3.444,5.105-9.229,8.494-15.819,8.63c-6.585-0.136-12.376-3.525-15.83-8.63l-0.171-0.365h-17.804c0,0-7.169-0.083-11.394,5.768
				c0,0-5.729,5.938-0.694,19.47c0,0,7.449,21.353,32.641,28.521c0,0,5.362,1.694,13.106,1.79v0.008c0.05,0,0.098-0.008,0.146-0.008
				c0.045,0,0.096,0.008,0.146,0.008v-0.008c7.736-0.096,13.105-1.79,13.105-1.79c25.188-7.167,32.634-28.521,32.634-28.521
				C185.146,215.286,179.429,209.348,179.429,209.348z"/>
		</g>
		<g>
			<path fill="#FFFFFF" d="M112.469,232.747c4.985-1.22,8.603-4.906,8.603-9.261c0-5.362-5.476-9.709-12.228-9.709
				c-6.757,0-12.23,4.348-12.23,9.709c0,4.337,3.61,8.023,8.567,9.254v5.821h-7.998v3.091l23.377,0.005v-3.096h-8.091V232.747z
				 M108.779,230.252c-3.001,0-5.438-3.152-5.438-7.024c0-3.879,2.437-7.029,5.438-7.029c3.003,0,5.436,3.15,5.436,7.029
				C114.214,227.1,111.782,230.252,108.779,230.252z"/>
		</g>
		<g>
			<g>
				<path fill="#FFFFFF" d="M123.068,226.328v0.015v0.018c0.015,1.112,0.921,2.009,2.034,2.009c0.005,0,0.01-0.003,0.03-0.003
					l0.005,0.013h8.351v-3.049h-3.618v-8.002h3.62v-3.057h-10.438l0.005,12.028C123.058,226.313,123.068,226.328,123.068,226.328z"
					/>
			</g>
			<g>
				<path fill="#FFFFFF" d="M137.399,228.367l0.008,0.013h9.056v-3.019h-4.343v-8.043h4.343v-3.036l-11.115-0.01v12.089l0.041,0.03
					C135.413,227.483,136.299,228.359,137.399,228.367z"/>
			</g>
			<g>
				<path fill="#FFFFFF" d="M146.747,230.58h-23.979v3.182h8.013v6.333c-0.015,0.091-0.018,0.204-0.018,0.295
					c0,1.563,1.626,2.832,3.635,2.832c2.001,0,3.63-1.258,3.64-2.809h0.01l-0.003-6.667h8.701V230.58z"/>
			</g>
		</g>
		<g>
			<g>
				<path fill="#FFFFFF" d="M164.966,213.768v26.101c0,1.551,1.503,2.805,3.497,2.805s3.354-1.253,3.354-2.805v-26.101H164.966z"/>
			</g>
			<g>
				<path fill="#FFFFFF" d="M148.962,217.403h6.608v16.57c0,0,0,3.172-4.826,4.091h0.015c-1.201,0.181-1.843,0.828-1.843,1.84
					c0,1.017,0.619,1.813,1.646,1.813l0.015,0.015c0,0,11.472,0.471,11.472-7.054v-20.452h-13.088V217.403z"/>
			</g>
		</g>
		<g>
			<g>
				<path fill="#E03A3E" d="M153.28,191.526c0,0,1.201-7.145-6.208-15.903c0,0-7.638-11.49-17.456-4.275c0,0-4.642-3.539-8.383,0.27
					c0,0-3.139,1.699-1.425,6.933c0,0-9.161,10.566-2.588,19.961c0,0,2.543,2.502,2.764,4.808c0,0,2.352,4.597,9.929,7.072
					c0,0,12.205,4.313,20.504-9.187C150.417,201.206,159.413,198.203,153.28,191.526z M150.063,196.906
					c-0.431-0.625-1.685-0.508-1.685-0.508c-1.676,0.007-1.352,1.369-1.352,1.369c-0.204,1.888-2.81,4.013-2.81,4.013
					c-0.831,0.214-0.302,1.259-0.302,1.259c0.219,1.047-0.62,1.584-0.62,1.584c-3.328,3.582-10.256,3.219-10.256,3.219
					c-3.882,0.348-9.058-4.028-9.058-4.028c-1.267-0.508-0.952-1.563-0.952-1.563c0.093-1.15-0.75-1.57-0.75-1.57
					c-4.325-3.326-4.156-8.26-4.156-8.26c-0.571-5.871,4.32-11.369,4.32-11.369c4.73,0.599,7.129-1.204,7.129-1.204
					c6.85,4.035,7.658-0.795,7.658-0.795c-3.355,0.342-1.9-1.558-1.9-1.558c0.825-1.155,2.834-0.755,2.834-0.755
					c10.395,1.709,7.087,8.658,7.087,8.658c3.164,1.762,1.707,3.245,1.707,3.245c-4.207-1.148-1.035,3.157-1.035,3.157
					c1.374,0.093,2.024,2.822,2.024,2.822c-0.09,2.2,2.107,0.604,2.107,0.604c1.759-2.215,2.092,0.514,2.092,0.514
					C151.966,198.255,150.063,196.906,150.063,196.906z"/>
			</g>
			<g>
				<path fill="#E03A3E" d="M122.263,184.203c0,0,3.234-1.908,4.514-0.241c0,0,0.946,0.617,0.72-0.952c0,0-1.691-3.454-5.553,0.36
					C121.943,183.37,119.964,185.482,122.263,184.203z"/>
			</g>
			<g>
				<path fill="#E03A3E" d="M140.284,180.034l-2.562,1.118c-1.712,0.851-0.7,2.024-0.7,2.024c1.433,1.435,2.601,0.267,2.601,0.267
					c1.898-2.135,3.975-1.128,3.975-1.128C142.994,178.302,140.284,180.034,140.284,180.034z"/>
			</g>
			<g>
				<path fill="#E03A3E" d="M135.803,192.163c1.471-0.015,2.651-1.203,2.633-2.673c-0.01-1.46-1.203-2.644-2.668-2.633
					c-1.464,0.01-2.646,1.203-2.633,2.663C133.138,190.998,134.344,192.173,135.803,192.163z"/>
			</g>
			<g>
				<path fill="#E03A3E" d="M127.959,188.78c0,0-2.301,0.541,0.327,2.097c0,0,2.432,1.347,2.417-0.124c0,0-1.674,0.217-0.327-1.888
					c0,0,0.088-2.625-1.803-2.822C128.574,186.043,130.165,188.764,127.959,188.78z"/>
			</g>
			<g>
				<path fill="#E03A3E" d="M125.759,188.377c0,0,2.303-0.549-0.219-0.629c0,0-2.415,0.332-3.372-1.551c0,0-2.006-1.873-0.831,0.428
					C121.338,186.625,122.199,189.555,125.759,188.377z"/>
			</g>
			<g>
				<path fill="#E03A3E" d="M140.924,196.344l-1.667,1.061c0,0-1.471,0.644-0.955-1.038c0,0,0.285-4.31-2.432-2.502
					c0,0-1.875,2.009-3.24,2.435c0,0-2.502,1.387-5.14-0.484c0,0-2.754-3.023-4.33-2.801c0,0-2.318-0.717-0.31,0.629
					c0,0,1.689,0.096,2.419,1.144c0,0,1.491,1.661,2.649,2.175c0,0,1.696,1.883,5.467,1.853c0,0,5.146,0.594,8.171-2.054
					C141.558,196.76,142.699,195.179,140.924,196.344z M134.887,197.525l-1.259-0.214c0,0,1.881-0.626,2.518-1.468
					C136.146,195.844,135.736,197.312,134.887,197.525z"/>
			</g>
			<g>
				<path fill="#E03A3E" d="M143.175,194.787c0,0-1.224-0.544-0.287,0.652c0,0,0.529,0.39,0.529,0.964c0,0,0.393-0.315,0.181-1.07
					C143.598,195.333,143.386,194.882,143.175,194.787z"/>
			</g>
			<g>
				<path fill="#E03A3E" d="M130.271,203.089c-0.473-0.317-1.148,0.377-1.148,0.377c-1.42,0.479-2.945-0.448-2.945-0.448
					c-1.048-0.074-1.451-0.741-1.582-1.046c-0.012-0.577-0.322-0.837-0.322-0.837c-0.999-1.143-0.939,0.222-0.939,0.222
					c0.421,0.411,0.421,0.833,0.421,0.833c-0.096,0.576,0.539,1.103,0.539,1.103c3.303,2.53,3.792,1.599,3.792,1.599
					c0.196-0.05,0.987-0.375,0.987-0.375c0.018-0.106,1.047-0.904,1.047-0.904C131.428,202.928,130.271,203.089,130.271,203.089z"/>
			</g>
		</g>
		<g>
			<g>
				<path fill="#E03A3E" d="M184.148,263.995c-2.859,0-5.176,2.318-5.176,5.177c0,2.858,2.317,5.176,5.176,5.176
					c2.858,0,5.176-2.317,5.176-5.176C189.325,266.313,187.007,263.995,184.148,263.995z M184.149,273.435
					c-2.354,0-4.263-1.909-4.263-4.263c0-2.354,1.908-4.263,4.263-4.263c2.354,0,4.263,1.909,4.263,4.263
					C188.412,271.526,186.503,273.435,184.149,273.435z"/>
			</g>
			<g>
				<path fill="#E03A3E" d="M186.548,271.544l-0.05-1.139c-0.033-0.875-0.37-1.032-0.708-1.181c0.379-0.237,0.823-0.579,0.823-1.506
					c0-1.331-0.971-1.689-1.941-1.689h-2.731v6.285h0.798v-2.696h1.933c0.954,0,1.052,0.604,1.052,1.121
					c0,0.236,0.025,1.19,0.141,1.575h0.979v-0.14C186.597,272.025,186.556,271.895,186.548,271.544z M184.59,268.892h-1.851v-2.137
					h1.991c0.395,0,1.061,0.079,1.061,1.051C185.791,268.733,185.174,268.892,184.59,268.892z"/>
			</g>
		</g>
	</g>
</g>
</svg>
